# xmcd CD database file
#
# Track frame offsets:
#	150
#	20497
#	42881
#	60745
#	83688
#	113860
#	139694
#	165973
#	183003
#	204320
#
# Disc length: 3055 seconds
#
# Revision: 0
# Processed by: cddbd v1.4PL0 Copyright (c) Steve Scherf et al.
# Submitted via: CDex 1.50beta10
#
DISCID=740bed0a
DTITLE=Diana Krall - The Look of Love
DYEAR=1900
DGENRE=Jazz
TTITLE0=S'Wonderful
TTITLE1=Love Letters
TTITLE2=I Remember You
TTITLE3=Cry Me A River
TTITLE4=Besame Mucho
TTITLE5=The Night We Called It A Day
TTITLE6=Dancing In The Dark
TTITLE7=I Get Along With You
TTITLE8=The Look Of Love
TTITLE9=Maybe You will Be There
EXTD=
EXTT0=
EXTT1=
EXTT2=
EXTT3=
EXTT4=
EXTT5=
EXTT6=
EXTT7=
EXTT8=
EXTT9=
PLAYORDER=
